<?xml version="1.0" standalone="yes"?>
<svg width="80mm" height="80mm" viewBox="0 0 13 13" xmlns="http://www.w3.org/2000/svg">
	<rect width="13" height="13" x="0" y="0" fill="white"/>
	<rect width="1" height="1" x="2" y="2" fill="rgba(255, 255, 255, 1.0)"/>
	<rect width="1" height="1" x="3" y="2" fill="rgba(255, 255, 255, 1.0)"/>
	<rect width="1" height="1" x="4" y="2" fill="rgba(0, 0, 0, 1.0)"/>
	<rect width="1" height="1" x="5" y="2" fill="rgba(255, 255, 255, 1.0)"/>
	<rect width="1" height="1" x="6" y="2" fill="rgba(255, 255, 255, 1.0)"/>
	<rect width="1" height="1" x="7" y="2" fill="rgba(255, 255, 255, 1.0)"/>
	<rect width="1" height="1" x="8" y="2" fill="rgba(255, 255, 255, 1.0)"/>
	<rect width="1" height="1" x="9" y="2" fill="rgba(0, 0, 0, 1.0)"/>
	<rect width="1" height="1" x="10" y="2" fill="rgba(0, 0, 0, 1.0)"/>
	<rect width="1" height="1" x="2" y="3" fill="rgba(0, 0, 0, 1.0)"/>
	<rect width="1" height="1" x="3" y="3" fill="rgba(0, 0, 0, 1.0)"/>
	<rect width="1" height="1" x="4" y="3" fill="rgba(0, 0, 0, 1.0)"/>
	<rect width="1" height="1" x="5" y="3" fill="rgba(0, 0, 0, 1.0)"/>
	<rect width="1" height="1" x="6" y="3" fill="rgba(0, 0, 0, 1.0)"/>
	<rect width="1" height="1" x="7" y="3" fill="rgba(0, 0, 0, 1.0)"/>
	<rect width="1" height="1" x="8" y="3" fill="rgba(0, 0, 0, 1.0)"/>
	<rect width="1" height="1" x="9" y="3" fill="rgba(0, 0, 0, 1.0)"/>
	<rect width="1" height="1" x="10" y="3" fill="rgba(0, 0, 0, 1.0)"/>
	<rect width="1" height="1" x="2" y="4" fill="rgba(255, 255, 255, 1.0)"/>
	<rect width="1" height="1" x="3" y="4" fill="rgba(0, 0, 0, 1.0)"/>
	<rect width="1" height="1" x="4" y="4" fill="rgba(255, 255, 255, 1.0)"/>
	<rect width="1" height="1" x="5" y="4" fill="rgba(255, 255, 255, 1.0)"/>
	<rect width="1" height="1" x="6" y="4" fill="rgba(255, 255, 255, 1.0)"/>
	<rect width="1" height="1" x="7" y="4" fill="rgba(255, 255, 255, 1.0)"/>
	<rect width="1" height="1" x="8" y="4" fill="rgba(255, 255, 255, 1.0)"/>
	<rect width="1" height="1" x="9" y="4" fill="rgba(0, 0, 0, 1.0)"/>
	<rect width="1" height="1" x="10" y="4" fill="rgba(0, 0, 0, 1.0)"/>
	<rect width="1" height="1" x="2" y="5" fill="rgba(0, 0, 0, 1.0)"/>
	<rect width="1" height="1" x="3" y="5" fill="rgba(0, 0, 0, 1.0)"/>
	<rect width="1" height="1" x="4" y="5" fill="rgba(255, 255, 255, 1.0)"/>
	<rect width="1" height="1" x="5" y="5" fill="rgba(255, 255, 255, 1.0)"/>
	<rect width="1" height="1" x="6" y="5" fill="rgba(255, 255, 255, 1.0)"/>
	<rect width="1" height="1" x="7" y="5" fill="rgba(255, 255, 255, 1.0)"/>
	<rect width="1" height="1" x="8" y="5" fill="rgba(255, 255, 255, 1.0)"/>
	<rect width="1" height="1" x="9" y="5" fill="rgba(0, 0, 0, 1.0)"/>
	<rect width="1" height="1" x="10" y="5" fill="rgba(255, 255, 255, 1.0)"/>
	<rect width="1" height="1" x="2" y="6" fill="rgba(0, 0, 0, 1.0)"/>
	<rect width="1" height="1" x="3" y="6" fill="rgba(0, 0, 0, 1.0)"/>
	<rect width="1" height="1" x="4" y="6" fill="rgba(255, 255, 255, 1.0)"/>
	<rect width="1" height="1" x="5" y="6" fill="rgba(0, 0, 0, 1.0)"/>
	<rect width="1" height="1" x="6" y="6" fill="rgba(0, 0, 0, 1.0)"/>
	<rect width="1" height="1" x="7" y="6" fill="rgba(255, 255, 255, 1.0)"/>
	<rect width="1" height="1" x="8" y="6" fill="rgba(255, 255, 255, 1.0)"/>
	<rect width="1" height="1" x="9" y="6" fill="rgba(0, 0, 0, 1.0)"/>
	<rect width="1" height="1" x="10" y="6" fill="rgba(0, 0, 0, 1.0)"/>
	<rect width="1" height="1" x="2" y="7" fill="rgba(0, 0, 0, 1.0)"/>
	<rect width="1" height="1" x="3" y="7" fill="rgba(0, 0, 0, 1.0)"/>
	<rect width="1" height="1" x="4" y="7" fill="rgba(255, 255, 255, 1.0)"/>
	<rect width="1" height="1" x="5" y="7" fill="rgba(0, 0, 0, 1.0)"/>
	<rect width="1" height="1" x="6" y="7" fill="rgba(255, 255, 255, 1.0)"/>
	<rect width="1" height="1" x="7" y="7" fill="rgba(0, 0, 0, 1.0)"/>
	<rect width="1" height="1" x="8" y="7" fill="rgba(255, 255, 255, 1.0)"/>
	<rect width="1" height="1" x="9" y="7" fill="rgba(0, 0, 0, 1.0)"/>
	<rect width="1" height="1" x="10" y="7" fill="rgba(255, 255, 255, 1.0)"/>
	<rect width="1" height="1" x="2" y="8" fill="rgba(255, 255, 255, 1.0)"/>
	<rect width="1" height="1" x="3" y="8" fill="rgba(0, 0, 0, 1.0)"/>
	<rect width="1" height="1" x="4" y="8" fill="rgba(255, 255, 255, 1.0)"/>
	<rect width="1" height="1" x="5" y="8" fill="rgba(255, 255, 255, 1.0)"/>
	<rect width="1" height="1" x="6" y="8" fill="rgba(255, 255, 255, 1.0)"/>
	<rect width="1" height="1" x="7" y="8" fill="rgba(255, 255, 255, 1.0)"/>
	<rect width="1" height="1" x="8" y="8" fill="rgba(255, 255, 255, 1.0)"/>
	<rect width="1" height="1" x="9" y="8" fill="rgba(0, 0, 0, 1.0)"/>
	<rect width="1" height="1" x="10" y="8" fill="rgba(0, 0, 0, 1.0)"/>
	<rect width="1" height="1" x="2" y="9" fill="rgba(0, 0, 0, 1.0)"/>
	<rect width="1" height="1" x="3" y="9" fill="rgba(0, 0, 0, 1.0)"/>
	<rect width="1" height="1" x="4" y="9" fill="rgba(0, 0, 0, 1.0)"/>
	<rect width="1" height="1" x="5" y="9" fill="rgba(0, 0, 0, 1.0)"/>
	<rect width="1" height="1" x="6" y="9" fill="rgba(0, 0, 0, 1.0)"/>
	<rect width="1" height="1" x="7" y="9" fill="rgba(0, 0, 0, 1.0)"/>
	<rect width="1" height="1" x="8" y="9" fill="rgba(0, 0, 0, 1.0)"/>
	<rect width="1" height="1" x="9" y="9" fill="rgba(0, 0, 0, 1.0)"/>
	<rect width="1" height="1" x="10" y="9" fill="rgba(0, 0, 0, 1.0)"/>
	<rect width="1" height="1" x="2" y="10" fill="rgba(255, 255, 255, 1.0)"/>
	<rect width="1" height="1" x="3" y="10" fill="rgba(255, 255, 255, 1.0)"/>
	<rect width="1" height="1" x="4" y="10" fill="rgba(0, 0, 0, 1.0)"/>
	<rect width="1" height="1" x="5" y="10" fill="rgba(255, 255, 255, 1.0)"/>
	<rect width="1" height="1" x="6" y="10" fill="rgba(0, 0, 0, 1.0)"/>
	<rect width="1" height="1" x="7" y="10" fill="rgba(0, 0, 0, 1.0)"/>
	<rect width="1" height="1" x="8" y="10" fill="rgba(255, 255, 255, 1.0)"/>
	<rect width="1" height="1" x="9" y="10" fill="rgba(0, 0, 0, 1.0)"/>
	<rect width="1" height="1" x="10" y="10" fill="rgba(0, 0, 0, 1.0)"/>
</svg>
